HIERARCHY
ROOT Hips
{
    OFFSET   0.000000   0.000000   0.000000
    CHANNELS 6 Xposition Yposition Zposition Zrotation Xrotation Yrotation
    JOINT Chest
    {
        OFFSET   0.000000   8.007240   0.000000
        CHANNELS 3 Zrotation Xrotation Yrotation
        JOINT Chest2
        {
            OFFSET   0.000000  22.077100   0.000000
            CHANNELS 3 Zrotation Xrotation Yrotation
            JOINT Neck
            {
                OFFSET   0.000000  23.254800   0.000000
                CHANNELS 3 Zrotation Xrotation Yrotation
                JOINT Head
                {
                    OFFSET   0.000000  14.370000   1.956600
                    CHANNELS 3 Zrotation Xrotation Yrotation
                    End Site
                    {
                        OFFSET   0.000000  19.566000   0.000000
                    }
                }
            }
            JOINT LeftCollar
            {
                OFFSET   3.911900  19.017000  -0.467064
                CHANNELS 3 Zrotation Xrotation Yrotation
                JOINT LeftShoulder
                {
                    OFFSET  10.383700   0.000000   0.000000
                    CHANNELS 3 Zrotation Xrotation Yrotation
                    JOINT LeftElbow
                    {
                        OFFSET  26.662100   0.001476   0.000517
                        CHANNELS 3 Zrotation Xrotation Yrotation
                        JOINT LeftWrist
                        {
                            OFFSET  28.869000  -0.000025  -0.000106
                            CHANNELS 3 Zrotation Xrotation Yrotation
                            JOINT LeftFinger0
                            {
                                OFFSET   2.044660  -2.323460   3.252850
                                CHANNELS 3 Zrotation Xrotation Yrotation
                                JOINT LeftFinger01
                                {
                                    OFFSET   3.088130   0.000000   0.000000
                                    CHANNELS 3 Zrotation Xrotation Yrotation
                                    JOINT LeftFinger02
                                    {
                                        OFFSET   2.639460   0.000000   0.000000
                                        CHANNELS 3 Zrotation Xrotation Yrotation
                                        End Site
                                        {
                                            OFFSET   2.582190   0.000000   0.000000
                                        }
                                    }
                                }
                            }
                            JOINT LeftFinger1
                            {
                                OFFSET   8.364480   0.000000   3.252850
                                CHANNELS 3 Zrotation Xrotation Yrotation
                                JOINT LeftFinger11
                                {
                                    OFFSET   4.646930   0.000000   0.000000
                                    CHANNELS 3 Zrotation Xrotation Yrotation
                                    JOINT LeftFinger12
                                    {
                                        OFFSET   2.323460   0.000000   0.000000
                                        CHANNELS 3 Zrotation Xrotation Yrotation
                                        End Site
                                        {
                                            OFFSET   2.273050   0.000000   0.000000
                                        }
                                    }
                                }
                            }
                            JOINT LeftFinger2
                            {
                                OFFSET   8.364490   0.000015   1.078090
                                CHANNELS 3 Zrotation Xrotation Yrotation
                                JOINT LeftFinger21
                                {
                                    OFFSET   5.111620   0.000000   0.000000
                                    CHANNELS 3 Zrotation Xrotation Yrotation
                                    JOINT LeftFinger22
                                    {
                                        OFFSET   2.788160   0.000016   0.000000
                                        CHANNELS 3 Zrotation Xrotation Yrotation
                                        End Site
                                        {
                                            OFFSET   2.727660   0.000000   0.000000
                                        }
                                    }
                                }
                            }
                            JOINT LeftFinger3
                            {
                                OFFSET   7.899780   0.000017  -1.078090
                                CHANNELS 3 Zrotation Xrotation Yrotation
                                JOINT LeftFinger31
                                {
                                    OFFSET   4.646930   0.000000   0.000000
                                    CHANNELS 3 Zrotation Xrotation Yrotation
                                    JOINT LeftFinger32
                                    {
                                        OFFSET   2.323470   0.000000   0.000000
                                        CHANNELS 3 Zrotation Xrotation Yrotation
                                        End Site
                                        {
                                            OFFSET   2.273050   0.000000   0.000000
                                        }
                                    }
                                }
                            }
                            JOINT LeftFinger4
                            {
                                OFFSET   7.435090   0.000000  -3.252850
                                CHANNELS 3 Zrotation Xrotation Yrotation
                                JOINT LeftFinger41
                                {
                                    OFFSET   3.717550   0.000000   0.000000
                                    CHANNELS 3 Zrotation Xrotation Yrotation
                                    JOINT LeftFinger42
                                    {
                                        OFFSET   1.858770   0.000000   0.000000
                                        CHANNELS 3 Zrotation Xrotation Yrotation
                                        End Site
                                        {
                                            OFFSET   1.818440   0.000000   0.000000
                                        }
                                    }
                                }
                            }
                        }
                    }
                }
            }
            JOINT RightCollar
            {
                OFFSET  -3.911900  19.017000  -0.467063
                CHANNELS 3 Zrotation Xrotation Yrotation
                JOINT RightShoulder
                {
                    OFFSET -10.383700   0.000019   0.000000
                    CHANNELS 3 Zrotation Xrotation Yrotation
                    JOINT RightElbow
                    {
                        OFFSET -26.662100   0.001175   0.000102
                        CHANNELS 3 Zrotation Xrotation Yrotation
                        JOINT RightWrist
                        {
                            OFFSET -28.869000   0.000016  -0.000079
                            CHANNELS 3 Zrotation Xrotation Yrotation
                            JOINT RightFinger0
                            {
                                OFFSET  -2.044660  -2.323490   3.252850
                                CHANNELS 3 Zrotation Xrotation Yrotation
                                JOINT RightFinger01
                                {
                                    OFFSET  -3.088140   0.000000   0.000000
                                    CHANNELS 3 Zrotation Xrotation Yrotation
                                    JOINT RightFinger02
                                    {
                                        OFFSET  -2.639460   0.000000   0.000000
                                        CHANNELS 3 Zrotation Xrotation Yrotation
                                        End Site
                                        {
                                            OFFSET  -2.582190   0.000000   0.000000
                                        }
                                    }
                                }
                            }
                            JOINT RightFinger1
                            {
                                OFFSET  -8.364480   0.000000   3.252850
                                CHANNELS 3 Zrotation Xrotation Yrotation
                                JOINT RightFinger11
                                {
                                    OFFSET  -4.646930   0.000000   0.000000
                                    CHANNELS 3 Zrotation Xrotation Yrotation
                                    JOINT RightFinger12
                                    {
                                        OFFSET  -2.323470   0.000000   0.000000
                                        CHANNELS 3 Zrotation Xrotation Yrotation
                                        End Site
                                        {
                                            OFFSET  -2.273050   0.000000   0.000000
                                        }
                                    }
                                }
                            }
                            JOINT RightFinger2
                            {
                                OFFSET  -8.364480   0.000000   1.078090
                                CHANNELS 3 Zrotation Xrotation Yrotation
                                JOINT RightFinger21
                                {
                                    OFFSET  -5.111620   0.000000   0.000000
                                    CHANNELS 3 Zrotation Xrotation Yrotation
                                    JOINT RightFinger22
                                    {
                                        OFFSET  -2.788160   0.000000   0.000000
                                        CHANNELS 3 Zrotation Xrotation Yrotation
                                        End Site
                                        {
                                            OFFSET  -2.727660   0.000000   0.000000
                                        }
                                    }
                                }
                            }
                            JOINT RightFinger3
                            {
                                OFFSET  -7.899780   0.000000  -1.078090
                                CHANNELS 3 Zrotation Xrotation Yrotation
                                JOINT RightFinger31
                                {
                                    OFFSET  -4.646930   0.000000   0.000000
                                    CHANNELS 3 Zrotation Xrotation Yrotation
                                    JOINT RightFinger32
                                    {
                                        OFFSET  -2.323470   0.000000   0.000000
                                        CHANNELS 3 Zrotation Xrotation Yrotation
                                        End Site
                                        {
                                            OFFSET  -2.273050   0.000000   0.000000
                                        }
                                    }
                                }
                            }
                            JOINT RightFinger4
                            {
                                OFFSET  -7.435090   0.000000  -3.252850
                                CHANNELS 3 Zrotation Xrotation Yrotation
                                JOINT RightFinger41
                                {
                                    OFFSET  -3.717550   0.000000   0.000000
                                    CHANNELS 3 Zrotation Xrotation Yrotation
                                    JOINT RightFinger42
                                    {
                                        OFFSET  -1.858770   0.000000   0.000000
                                        CHANNELS 3 Zrotation Xrotation Yrotation
                                        End Site
                                        {
                                            OFFSET  -1.818440   0.000000   0.000000
                                        }
                                    }
                                }
                            }
                        }
                    }
                }
            }
        }
    }
    JOINT LeftHip
    {
        OFFSET   9.783040   0.000000   0.000000
        CHANNELS 3 Zrotation Xrotation Yrotation
        JOINT LeftKnee
        {
            OFFSET   0.000032 -41.789100  -0.002222
            CHANNELS 3 Zrotation Xrotation Yrotation
            JOINT LeftAnkle
            {
                OFFSET   0.000087 -41.133200  -0.000135
                CHANNELS 3 Zrotation Xrotation Yrotation
                JOINT LeftToe
                {
                    OFFSET   0.000000  -6.358960  14.674500
                    CHANNELS 3 Zrotation Xrotation Yrotation
                    End Site
                    {
                        OFFSET   0.000000   0.000000   3.913200
                    }
                }
            }
        }
    }
    JOINT RightHip
    {
        OFFSET  -9.783040   0.000000   0.000000
        CHANNELS 3 Zrotation Xrotation Yrotation
        JOINT RightKnee
        {
            OFFSET   0.000047 -41.789100  -0.000896
            CHANNELS 3 Zrotation Xrotation Yrotation
            JOINT RightAnkle
            {
                OFFSET  -0.000117 -41.133300  -0.000248
                CHANNELS 3 Zrotation Xrotation Yrotation
                JOINT RightToe
                {
                    OFFSET   0.000000  -6.358970  14.674500
                    CHANNELS 3 Zrotation Xrotation Yrotation
                    End Site
                    {
                        OFFSET   0.000000   0.000000   3.913200
                    }
                }
            }
        }
    }
}
MOTION
Frames: 6
Frame Time:   0.016667
 -0.860086  89.516500  -6.869320   3.116210  -6.610510  14.773000   1.487440  22.879200   3.756660   1.355210  45.803800   7.890450  -4.001540  -6.837760  -0.477214  -6.835210 -13.659800  -9.288870  -9.010060  -6.606100   8.487830 -64.219600  29.950900  -5.567240   2.998500  -4.101520 -25.631000   5.271640 -16.405800  -3.059550  36.499200  31.035600 -55.115100 -36.125400  -0.002284   0.011666 -13.184000  -0.001151  -0.004958 -36.874700   0.193458  -0.257669 -30.170500   0.002825  -0.000476 -21.119300   0.000430   0.003380 -30.483400  -3.732420   6.310270 -46.033800   0.002628  -0.004700 -30.658500   0.002191   0.006268 -28.530500  -3.532690   6.466250 -39.738200   0.002929  -0.000581 -26.465700  -0.000450   0.002430 -33.060700  -6.131280   9.318480 -50.341300  -0.007190  -0.000347 -33.527300  -0.004752  -0.002062   0.803525  -7.288210  10.032300  45.216800  30.397800  36.652300  -1.563430   6.147770 115.709000  22.375000 -20.704800  35.509800 -46.782700  33.664500  69.562300  19.040600   0.002108  -0.005054   4.520340   0.003126   0.001563  13.728600   1.822780   7.419340  11.328800   0.003351   0.004632   7.930150   0.003266  -0.002264  14.954500   1.589730   5.931080  15.036500   0.000000   0.000502  10.014300   0.000691  -0.001575  19.074700  -2.341410  -6.738080  19.212400   0.005157   0.000863  12.795500   0.001395  -0.001228  23.970000  -3.055550  -6.836580  36.228400   0.002676  -0.005454  24.128100   0.004128  -0.002049   0.310012   1.360370   0.198652   1.451810   3.291300   4.826450  -4.843990   3.517490  -4.615340  -0.000000   0.000000   0.000000  -3.141570   5.662200  -8.699720   1.540080   2.273420 -15.051900  -0.502663  -0.075917  -5.527110   0.000000   0.000000   0.000000
 -0.784347  89.521000  -6.763030   3.125700  -6.752360  14.550000   1.499970  22.755700   3.716410   1.417730  45.558100   7.781250  -3.994900  -7.119650  -0.495727  -6.842880 -14.223600  -9.177820  -9.064130  -6.615940   8.472660 -64.303400  29.843300  -5.548340   2.930490  -4.070920 -25.629700   5.313100 -16.269700  -3.069750  36.543700  31.052400 -54.973100 -36.076600  -0.002252   0.012069 -13.153400  -0.001151  -0.005028 -36.850800   0.175994  -0.234626 -30.150900   0.002754  -0.000452 -21.105600   0.000395   0.003424 -30.525400  -3.731800   6.298610 -46.096200   0.002552  -0.004608 -30.700100   0.002137   0.006297 -28.527500  -3.547490   6.493270 -39.760100   0.002885  -0.000578 -26.480300  -0.000448   0.002353 -33.073200  -6.150350   9.342490 -50.364300  -0.007146  -0.000315 -33.542600  -0.004698  -0.002102   0.869810  -7.299180  10.108900  45.332000  30.238500  36.562000  -1.687510   6.256760 115.658000  22.478500 -20.918800  35.478700 -46.834700  33.731900  69.826900  18.965200   0.002226  -0.005095   4.482600   0.003217   0.001623  13.691500   1.783840   7.283490  11.294800   0.003330   0.004519   7.906380   0.003250  -0.002261  14.867500   1.560940   5.850460  14.944500   0.000000   0.000438   9.953020   0.000761  -0.001528  19.097400  -2.360020  -6.783430  19.236700   0.005327   0.000818  12.811700   0.001430  -0.001315  23.966500  -3.086420  -6.907060  36.232600   0.002774  -0.005632  24.130900   0.004317  -0.002134   0.313106   1.680230   0.199993   1.422670   3.207680   4.885980  -4.809170   3.371800  -4.462210   0.000000   0.000000   0.000000  -3.159550   5.824240  -8.674080   1.518270   2.340540 -14.983800  -0.436868  -0.166651  -5.376860  -0.000000   0.000000  -0.000000
 -0.706125  89.525800  -6.644320   3.132260  -6.897200  14.307000   1.507160  22.623400   3.671240   1.474330  45.294400   7.662750  -3.988740  -7.410820  -0.514878  -6.853220 -14.806100  -9.041970  -9.113800  -6.634800   8.455220 -64.404500  29.727600  -5.501890   2.865610  -4.021460 -25.626300   5.360230 -16.158200  -3.069780  36.598500  31.080600 -54.848000 -36.030800  -0.002219   0.012294 -13.124800  -0.001153  -0.005084 -36.828200   0.155064  -0.206899 -30.132300   0.002682  -0.000429 -21.092700   0.000361   0.003467 -30.565600  -3.731200   6.287440 -46.156000   0.002477  -0.004515 -30.739900   0.002084   0.006329 -28.522700  -3.570100   6.534760 -39.781500   0.002841  -0.000576 -26.494500  -0.000444   0.002276 -33.085300  -6.172410   9.371040 -50.387500  -0.007102  -0.000284 -33.558000  -0.004641  -0.002139   0.939643  -7.320760  10.182400  45.455400  30.074400  36.480200  -1.823430   6.379750 115.602000  22.580700 -21.173800  35.437300 -46.890000  33.807500  70.111200  18.888000   0.002341  -0.005132   4.443990   0.003308   0.001683  13.654800   1.742950   7.135550  11.260800   0.003314   0.004406   7.882600   0.003237  -0.002259  14.801800   1.514510   5.711710  14.876500  -0.000000   0.000372   9.907710   0.000826  -0.001481  19.137500  -2.391710  -6.857950  19.280300   0.005496   0.000773  12.840700   0.001467  -0.001405  23.983400  -3.133110  -7.004220  36.262400   0.002874  -0.005812  24.150800   0.004508  -0.002219   0.320381   2.008470   0.202197   1.384680   3.138040   4.956530  -4.771980   3.216580  -4.304030   0.000000   0.000000   0.000000  -3.173760   5.991560  -8.656120   1.491990   2.410100 -14.899700  -0.370102  -0.260598  -5.216980  -0.000000   0.000000   0.000000
 -0.629777  89.533200  -6.517440   3.130110  -7.041630  14.044800   1.511860  22.479400   3.621230   1.526480  45.007100   7.534700  -3.985200  -7.694810  -0.534231  -6.869790 -15.374400  -8.867540  -9.154730  -6.661560   8.431200 -64.516300  29.632800  -5.427170   2.806430  -3.980190 -25.581900   5.404420 -16.095400  -3.055080  36.652500  31.134700 -54.789100 -36.000000  -0.002182   0.009176 -13.106000  -0.001153  -0.005134 -36.816100   0.127439  -0.169860 -30.122300   0.002612  -0.000405 -21.085700   0.000332   0.003513 -30.602700  -3.730590   6.277160 -46.211200   0.002402  -0.004422 -30.776600   0.002028   0.006365 -28.517700  -3.593410   6.577220 -39.797600   0.002796  -0.000573 -26.505200  -0.000434   0.002200 -33.091300  -6.202430   9.408380 -50.402800  -0.007056  -0.000245 -33.568200  -0.004584  -0.002178   1.013270  -7.348680  10.251600  45.563200  29.934100  36.423400  -1.966730   6.463890 115.521000  22.656000 -21.440400  35.375300 -46.953100  33.942700  70.482400  18.783400   0.002454  -0.005182   4.391680   0.003399   0.001732  13.720800   1.733690   7.062230  11.313000   0.003300   0.004288   7.919120   0.003226  -0.002259  14.805200   1.483550   5.598660  14.876700   0.000000   0.000304   9.907820   0.000917  -0.001442  19.244900  -2.423130  -6.905750  19.390100   0.005661   0.000720  12.913800   0.001515  -0.001500  24.067500  -3.155530  -7.026050  36.386800   0.002959  -0.005992  24.233700   0.004697  -0.002311   0.332101   2.284340   0.204347   1.345770   3.130170   5.034070  -4.723380   3.054040  -4.133500  -0.000000   0.000000  -0.000000  -3.179730   6.161650  -8.652750   1.461670   2.483170 -14.790500  -0.301981  -0.362438  -5.052610   0.000000   0.000000   0.000000
 -0.551862  89.537900  -6.382640   3.120010  -7.185520  13.760100   1.514180  22.318400   3.563160   1.578330  44.685600   7.388970  -3.978130  -8.042900  -0.557420  -6.890920 -16.071000  -8.666670  -9.198550  -6.679190   8.416130 -64.638400  29.542300  -5.327610   2.747000  -3.954520 -25.493600   5.437560 -16.016300  -3.022020  36.697500  31.189500 -54.749200 -35.969500  -0.002146   0.004339 -13.086200  -0.001155  -0.005158 -36.801700   0.106581  -0.142086 -30.110600   0.002542  -0.000382 -21.077400   0.000305   0.003562 -30.626300  -3.729960   6.270640 -46.246100   0.002330  -0.004329 -30.799900   0.001971   0.006400 -28.513700  -3.611920   6.611600 -39.805400   0.002750  -0.000569 -26.510400  -0.000423   0.002124 -33.092200  -6.221040   9.441050 -50.409600  -0.007009  -0.000206 -33.572800  -0.004529  -0.002216   1.088540  -7.366060  10.319800  45.668800  29.782300  36.374100  -2.105630   6.539910 115.443000  22.714500 -21.696600  35.294800 -47.142500  34.074700  70.795700  18.671500   0.002565  -0.005231   4.335710   0.003490   0.001781  13.785300   1.729560   7.014070  11.365200   0.003289   0.004168   7.955640   0.003213  -0.002259  14.809400   1.448670   5.465960  14.876800   0.000000   0.000237   9.907930   0.001020  -0.001407  19.360200  -2.462280  -6.971470  19.508900   0.005826   0.000667  12.992900   0.001565  -0.001597  24.176700  -3.182180  -7.050030  36.557200   0.003040  -0.006169  24.347100   0.004886  -0.002407   0.339668   2.536700   0.205643   1.312670   3.128690   5.118570  -4.667300   2.885450  -3.946700   0.000000   0.000000   0.000000  -3.181030   6.324360  -8.645150   1.427580   2.569800 -14.665300  -0.233011  -0.472243  -4.890610   0.000000   0.000000   0.000000
 -0.469100  89.537900  -6.241410   3.104820  -7.328010  13.448000   1.514960  22.134900   3.495800   1.632530  44.318800   7.222370  -3.964350  -8.550550  -0.590558  -6.919710 -17.086400  -8.466850  -9.255990  -6.676750   8.417170 -64.770500  29.451900  -5.203660   2.682540  -3.953930 -25.381100   5.454680 -15.843500  -2.973370  36.750600  31.241500 -54.719200 -35.928700  -0.002114   0.000583 -13.057100  -0.001163  -0.005153 -36.772800   0.101808  -0.136040 -30.087100   0.002471  -0.000361 -21.060900   0.000280   0.003614 -30.629200  -3.729290   6.269850 -46.250200   0.002266  -0.004237 -30.802700   0.001915   0.006425 -28.512600  -3.617870   6.623370 -39.770500   0.002705  -0.000561 -26.487200  -0.000419   0.002048 -33.071800  -6.220680   9.454390 -50.379800  -0.006960  -0.000173 -33.553000  -0.004481  -0.002256   1.162940  -7.353920  10.381600  45.776500  29.598300  36.319800  -2.221430   6.613390 115.394000  22.764400 -21.894700  35.194100 -47.359900  34.176200  70.874100  18.566900   0.002673  -0.005269   4.283420   0.003588   0.001838  13.776300   1.718400   6.971260  11.356400   0.003283   0.004049   7.949470   0.003196  -0.002258  14.787900   1.397820   5.283050  14.851500   0.000000   0.000173   9.891060   0.001131  -0.001371  19.432900  -2.518170  -7.099280  19.587800   0.005995   0.000616  13.045500   0.001610  -0.001691  24.266400  -3.235130  -7.135710  36.700100   0.003121  -0.006336  24.442300   0.005078  -0.002503   0.332253   2.770560   0.204923   1.293960   3.153320   5.208070  -4.601940   2.715020  -3.736240   0.000000   0.000000   0.000000  -3.183330   6.466340  -8.602970   1.391690   2.687010 -14.534300  -0.162353  -0.595672  -4.742550   0.000000   0.000000  -0.000000
